<svg width="77" height="80" viewBox="0 0 77 80" fill="none" xmlns="http://www.w3.org/2000/svg">
<path d="M7.46286 51.5138L21.3866 56.689C22.5826 56.9319 23.3124 57.5998 22.0758 58.4093L18.024 60.8436C38.295 82.6807 70.4448 62.7662 67.6474 41.678C68.073 37.0029 76.2625 36.7803 76.5666 42.2042C78.391 74.7068 33.7746 93.6498 10.3008 65.4377L2.82081 69.8901C2.82081 69.8901 1.23968 69.7687 1.44239 68.1901L6.02362 52.3638C6.02362 52.3435 6.28715 51.3316 7.46286 51.5138Z" fill="#FFE800"/>
<path d="M69.158 27.6674L55.2342 22.4921C54.0382 22.2492 53.3085 21.5814 54.545 20.7718L58.5968 18.3375C38.3259 -3.49955 6.1761 16.4149 8.97349 37.5031C8.5478 42.1782 0.358339 42.4008 0.0542754 36.9769C-1.77011 4.47431 42.8463 -14.4687 66.3201 13.7434L73.8 9.29102C73.8 9.29102 75.3812 9.41245 75.1785 10.991L70.5972 26.8173C70.5972 26.8376 70.3337 27.8495 69.158 27.6674Z" fill="#FFE800"/>
<path d="M29.4658 49.6079C32.4326 49.6079 34.8376 47.1071 34.8376 44.0221C34.8376 40.9372 32.4326 38.4364 29.4658 38.4364C26.499 38.4364 24.094 40.9372 24.094 44.0221C24.094 47.1071 26.499 49.6079 29.4658 49.6079Z" fill="#FFE800"/>
<path d="M47.1346 40.4858C50.1014 40.4858 52.5064 37.985 52.5064 34.9C52.5064 31.8151 50.1014 29.3143 47.1346 29.3143C44.1679 29.3143 41.7628 31.8151 41.7628 34.9C41.7628 37.985 44.1679 40.4858 47.1346 40.4858Z" fill="#FFE800"/>
</svg>
