<svg width="120" height="120" viewBox="0 0 120 120" fill="none" xmlns="http://www.w3.org/2000/svg">
<g opacity="0.6">
<path d="M120 60C120 93.1371 93.1371 120 60 120C26.8629 120 0 93.1371 0 60C0 26.8629 26.8629 0 60 0C93.1371 0 120 26.8629 120 60Z" fill="#868A90"/>
<path d="M60.3053 56.6446C71.1399 56.6446 79.9154 47.8691 79.9154 37.0344C79.9154 26.1998 71.1399 17.4243 60.3053 17.4243C49.4706 17.4243 40.6951 26.1998 40.6951 37.0344C40.6951 47.8691 49.4706 56.6446 60.3053 56.6446ZM60.3053 66.4497C47.2155 66.4497 21.0849 73.0191 21.0849 86.0599V90.9624C21.0849 93.6588 23.2911 95.865 25.9875 95.865H94.6231C97.3195 95.865 99.5256 93.6588 99.5256 90.9624V86.0599C99.5256 73.0191 73.3951 66.4497 60.3053 66.4497Z" fill="white"/>
</g>
</svg>
